<?xml version="1.0" encoding="UTF-8"?>
<svg width="145px" height="22px" viewBox="0 0 145 22" version="1.1" xmlns="http://www.w3.org/2000/svg" xmlns:xlink="http://www.w3.org/1999/xlink">
    <!-- Generator: Sketch 57.1 (83088) - https://sketch.com -->
    <title>Logo 2</title>
    <desc>Created with Sketch.</desc>
    <defs>
        <path d="M8.84,19.16 C7.44,19.16 6.1766723,18.8500031 5.05,18.23 C3.9233277,17.6099969 3.0400032,16.7566721 2.4,15.67 C1.7599968,14.5833279 1.44,13.3600068 1.44,12 C1.44,10.6399932 1.7599968,9.4166721 2.4,8.33 C3.0400032,7.2433279 3.926661,6.3900031 5.06,5.77 C6.193339,5.1499969 7.459993,4.84 8.86,4.84 C9.9533388,4.84 10.9533288,5.0233315 11.86,5.39 C12.7666712,5.7566685 13.5399968,6.2999964 14.18,7.02 L12.88,8.28 C11.8266614,7.1733278 10.5133412,6.62 8.94,6.62 C7.8999948,6.62 6.9600042,6.853331 6.12,7.32 C5.2799958,7.786669 4.6233357,8.4299959 4.15,9.25 C3.6766643,10.0700041 3.44,10.9866616 3.44,12 C3.44,13.0133384 3.6766643,13.9299959 4.15,14.75 C4.6233357,15.5700041 5.2799958,16.213331 6.12,16.68 C6.9600042,17.146669 7.8999948,17.38 8.94,17.38 C10.5000078,17.38 11.813328,16.8200056 12.88,15.7 L14.18,16.96 C13.5399968,17.6800036 12.7633379,18.2266648 11.85,18.6 C10.9366621,18.9733352 9.9333388,19.16 8.84,19.16 Z M20.86,19.12 C19.8066614,19.12 18.8600042,18.886669 18.02,18.42 C17.1799958,17.953331 16.5233357,17.3100041 16.05,16.49 C15.5766643,15.6699959 15.34,14.7400052 15.34,13.7 C15.34,12.6599948 15.5766643,11.7300041 16.05,10.91 C16.5233357,10.0899959 17.1799958,9.4500023 18.02,8.99 C18.8600042,8.5299977 19.8066614,8.3 20.86,8.3 C21.9133386,8.3 22.8566625,8.5299977 23.69,8.99 C24.5233375,9.4500023 25.1766643,10.0899959 25.65,10.91 C26.1233357,11.7300041 26.36,12.6599948 26.36,13.7 C26.36,14.7400052 26.1233357,15.6699959 25.65,16.49 C25.1766643,17.3100041 24.5233375,17.953331 23.69,18.42 C22.8566625,18.886669 21.9133386,19.12 20.86,19.12 Z M20.86,17.44 C21.5400034,17.44 22.1499973,17.2833349 22.69,16.97 C23.2300027,16.6566651 23.6533318,16.2166695 23.96,15.65 C24.2666682,15.0833305 24.42,14.433337 24.42,13.7 C24.42,12.966663 24.2666682,12.3166695 23.96,11.75 C23.6533318,11.1833305 23.2300027,10.7466682 22.69,10.44 C22.1499973,10.1333318 21.5400034,9.98 20.86,9.98 C20.1799966,9.98 19.5700027,10.1333318 19.03,10.44 C18.4899973,10.7466682 18.0633349,11.1833305 17.75,11.75 C17.4366651,12.3166695 17.28,12.966663 17.28,13.7 C17.28,14.433337 17.4366651,15.0833305 17.75,15.65 C18.0633349,16.2166695 18.4899973,16.6566651 19.03,16.97 C19.5700027,17.2833349 20.1799966,17.44 20.86,17.44 Z M38.9,8.4 L38.9,19 L37.08,19 L37.08,17.4 C36.6933314,17.9466694 36.1833365,18.3699985 35.55,18.67 C34.9166635,18.9700015 34.2266704,19.12 33.48,19.12 C32.0666596,19.12 30.9533374,18.7300039 30.14,17.95 C29.3266626,17.1699961 28.92,16.0200076 28.92,14.5 L28.92,8.4 L30.84,8.4 L30.84,14.28 C30.84,15.3066718 31.0866642,16.0833307 31.58,16.61 C32.0733358,17.1366693 32.7799954,17.4 33.7,17.4 C34.7133384,17.4 35.5133304,17.0933364 36.1,16.48 C36.6866696,15.8666636 36.98,15.0000056 36.98,13.88 L36.98,8.4 L38.9,8.4 Z M48.22,8.3 C49.5666734,8.3 50.6366627,8.6899961 51.43,9.47 C52.2233373,10.2500039 52.62,11.3933258 52.62,12.9 L52.62,19 L50.7,19 L50.7,13.12 C50.7,12.0933282 50.4533358,11.3200026 49.96,10.8 C49.4666642,10.2799974 48.7600046,10.02 47.84,10.02 C46.7999948,10.02 45.980003,10.3233303 45.38,10.93 C44.779997,11.5366697 44.48,12.406661 44.48,13.54 L44.48,19 L42.56,19 L42.56,8.4 L44.4,8.4 L44.4,10 C44.7866686,9.4533306 45.3099967,9.0333348 45.97,8.74 C46.6300033,8.4466652 47.3799958,8.3 48.22,8.3 Z M62.14,18.38 C61.8599986,18.6200012 61.5133354,18.8033327 61.1,18.93 C60.6866646,19.0566673 60.2600022,19.12 59.82,19.12 C58.753328,19.12 57.9266696,18.8333362 57.34,18.26 C56.7533304,17.6866638 56.46,16.866672 56.46,15.8 L56.46,9.98 L54.66,9.98 L54.66,8.4 L56.46,8.4 L56.46,6.08 L58.38,6.08 L58.38,8.4 L61.42,8.4 L61.42,9.98 L58.38,9.98 L58.38,15.72 C58.38,16.2933362 58.5233319,16.7333318 58.81,17.04 C59.0966681,17.3466682 59.506664,17.5 60.04,17.5 C60.6266696,17.5 61.1266646,17.333335 61.54,17 L62.14,18.38 Z M64.74,5 L66.74,5 L66.74,17.26 L74.32,17.26 L74.32,19 L64.74,19 L64.74,5 Z M82.68,19.16 C81.2666596,19.16 79.993339,18.8500031 78.86,18.23 C77.726661,17.6099969 76.8366699,16.7533388 76.19,15.66 C75.5433301,14.5666612 75.22,13.3466734 75.22,12 C75.22,10.6533266 75.5433301,9.4333388 76.19,8.34 C76.8366699,7.2466612 77.726661,6.3900031 78.86,5.77 C79.993339,5.1499969 81.2666596,4.84 82.68,4.84 C84.080007,4.84 85.346661,5.1499969 86.48,5.77 C87.613339,6.3900031 88.4999968,7.2433279 89.14,8.33 C89.7800032,9.4166721 90.1,10.6399932 90.1,12 C90.1,13.3600068 89.7800032,14.5833279 89.14,15.67 C88.4999968,16.7566721 87.613339,17.6099969 86.48,18.23 C85.346661,18.8500031 84.080007,19.16 82.68,19.16 Z M82.68,17.38 C83.7066718,17.38 84.6299959,17.146669 85.45,16.68 C86.2700041,16.213331 86.9166643,15.5700041 87.39,14.75 C87.8633357,13.9299959 88.1,13.0133384 88.1,12 C88.1,10.9866616 87.8633357,10.0700041 87.39,9.25 C86.9166643,8.4299959 86.2700041,7.786669 85.45,7.32 C84.6299959,6.853331 83.7066718,6.62 82.68,6.62 C81.6533282,6.62 80.7233375,6.853331 79.89,7.32 C79.0566625,7.786669 78.4033357,8.4299959 77.93,9.25 C77.4566643,10.0700041 77.22,10.9866616 77.22,12 C77.22,13.0133384 77.4566643,13.9299959 77.93,14.75 C78.4033357,15.5700041 79.0566625,16.213331 79.89,16.68 C80.7233375,17.146669 81.6533282,17.38 82.68,17.38 Z M99.42,19.16 C98.02,19.16 96.7566723,18.8500031 95.63,18.23 C94.5033277,17.6099969 93.6200032,16.7566721 92.98,15.67 C92.3399968,14.5833279 92.02,13.3600068 92.02,12 C92.02,10.6399932 92.3399968,9.4166721 92.98,8.33 C93.6200032,7.2433279 94.506661,6.3900031 95.64,5.77 C96.773339,5.1499969 98.039993,4.84 99.44,4.84 C100.533339,4.84 101.533329,5.0233315 102.44,5.39 C103.346671,5.7566685 104.119997,6.2999964 104.76,7.02 L103.46,8.28 C102.406661,7.1733278 101.093341,6.62 99.52,6.62 C98.4799948,6.62 97.5400042,6.853331 96.7,7.32 C95.8599958,7.786669 95.2033357,8.4299959 94.73,9.25 C94.2566643,10.0700041 94.02,10.9866616 94.02,12 C94.02,13.0133384 94.2566643,13.9299959 94.73,14.75 C95.2033357,15.5700041 95.8599958,16.213331 96.7,16.68 C97.5400042,17.146669 98.4799948,17.38 99.52,17.38 C101.080008,17.38 102.393328,16.8200056 103.46,15.7 L104.76,16.96 C104.119997,17.6800036 103.343338,18.2266648 102.43,18.6 C101.516662,18.9733352 100.513339,19.16 99.42,19.16 Z" id="path-1"></path>
    </defs>
    <g id="Page-1" stroke="none" stroke-width="1" fill="none" fill-rule="evenodd">
        <g id="Landing-Page-Loading" transform="translate(-440.000000, -25.000000)">
            <g id="Logo-2" transform="translate(439.000000, 25.000000)">
                <g id="Logo">
                    <g id="CountLOC" fill-rule="nonzero">
                        <use fill="#49494A" xlink:href="#path-1"></use>
                        <use fill="#102A43" xlink:href="#path-1"></use>
                    </g>
                    <g id="MainFavicon" transform="translate(111.000000, 0.000000)">
                        <rect id="Rectangle" fill="#003E6B" x="0" y="0" width="35" height="6" rx="3"></rect>
                        <rect id="Rectangle" fill="#003E6B" x="0" y="16" width="30" height="6" rx="3"></rect>
                        <rect id="Rectangle" fill="#8D2B0B" x="0" y="8" width="25" height="6" rx="3"></rect>
                    </g>
                </g>
            </g>
        </g>
    </g>
</svg>